<svg viewBox="0 0 18 18" fill="currentColor" xmlns="http://www.w3.org/2000/svg">
<path d="M6.08038 14.925C5.7476 14.925 5.46344 14.8073 5.22792 14.5717C4.99238 14.3362 4.87461 14.052 4.87461 13.7193V4.95005H3.97461V3.97507H7.19959V3.16162H10.7996V3.97507H14.0246V4.95005H13.1246V13.7111C13.1246 14.0579 13.008 14.3469 12.7749 14.5782C12.5418 14.8094 12.2564 14.925 11.9188 14.925H6.08038ZM12.1496 4.95005H5.84959V13.7193C5.84959 13.7866 5.87123 13.8419 5.9145 13.8851C5.95778 13.9284 6.01307 13.9501 6.08038 13.9501H11.9188C11.9765 13.9501 12.0294 13.926 12.0775 13.8779C12.1256 13.8299 12.1496 13.777 12.1496 13.7193V4.95005ZM7.5025 12.6001H8.47748V6.30005H7.5025V12.6001ZM9.5217 12.6001H10.4967V6.30005H9.5217V12.6001Z" fill="#9A9A9A"/>
</svg>
